<svg xmlns="http://www.w3.org/2000/svg" xmlns:xlink="http://www.w3.org/1999/xlink" version="1.1" id="Layer_1" x="0px" y="0px" width="100%" viewBox="0 0 222 227" enable-background="new 0 0 222 227" xml:space="preserve">
<path fill="#fefefe" opacity="1.000000" stroke="none" d=" M223.000000,86.000000   C223.000000,133.666672 223.000000,180.833328 223.000000,228.000000   C149.000000,228.000000 75.000000,228.000000 1.000000,228.000000   C1.000000,152.333328 1.000000,76.666664 1.000000,1.000000   C75.000000,1.000000 149.000000,1.000000 223.000000,1.000000   C223.000000,29.166666 223.000000,57.333332 223.000000,86.000000  M112.406166,224.008484   C112.406166,224.008484 112.446899,223.990738 113.063927,224.409698   C114.828461,224.582474 116.952446,225.481384 118.300995,224.813828   C129.687790,219.177094 140.858765,213.104523 152.243591,207.463654   C161.696823,202.779846 171.690369,199.094803 180.817581,193.871719   C189.196030,189.077148 199.240540,186.304092 204.788239,177.492935   C206.790085,174.313492 207.655746,170.418671 209.862625,166.575333   C209.908417,129.423111 209.958740,92.270905 209.964340,55.118683   C209.964447,54.439690 209.431030,53.760616 208.482330,53.057297   C205.935989,52.977348 202.980011,52.015366 200.915955,52.973915   C193.023514,56.639149 185.485397,61.057457 177.689545,64.942886   C165.979919,70.778915 154.169266,76.412483 142.392502,82.113419   C136.728256,84.855377 131.042374,87.552567 125.368835,90.275352   C124.624977,90.632339 123.835762,90.935890 123.170555,91.409012   C119.020233,94.360847 115.053581,94.621368 110.282951,92.168007   C90.111351,81.794441 69.756310,71.777908 49.486187,61.595318   C43.767639,58.722633 38.109768,55.729156 30.981899,52.045841   C34.524292,50.454887 36.792431,49.557613 38.949764,48.445408   C46.540279,44.532124 54.062862,40.486580 61.666542,36.599442   C73.409264,30.596363 85.201172,24.689562 96.965286,18.728243   C104.548592,14.885490 112.017441,13.431841 120.038696,18.025532   C128.149857,22.670719 136.578049,26.773798 144.947540,30.953777   C157.076111,37.011150 169.503265,42.516659 181.337738,49.094734   C186.229843,51.813969 188.747711,50.336559 192.858337,46.392056   C187.750214,43.491108 183.358902,40.758018 178.762589,38.429634   C161.635376,29.753407 144.440994,21.209810 127.271561,12.616952   C123.487740,10.723245 119.854294,7.691930 115.888466,7.165063   C106.220917,5.880713 97.070633,8.195931 88.428673,13.124380   C79.175713,18.401276 69.544792,23.021862 60.027561,27.827368   C46.293056,34.762291 32.464294,41.513039 18.806866,48.595211   C16.914215,49.576656 15.770543,52.002457 14.055993,54.023872   C23.536737,58.578148 31.719280,62.327583 39.735180,66.404655   C50.071129,71.661743 60.185268,77.358055 70.557434,82.539932   C81.961418,88.237305 93.409042,93.896683 105.131729,98.880981   C109.451744,100.717789 114.754547,101.671684 119.348686,101.062943   C124.732948,100.349510 129.997681,97.845863 135.025589,95.500031   C149.296326,88.841827 163.435043,81.899345 177.595520,75.006706   C185.280228,71.266151 192.903351,67.399139 201.371277,63.182312   C201.685715,65.942787 201.986465,67.357956 201.987640,68.773376   C202.013916,100.439415 202.023132,132.105515 201.959488,163.771454   C201.956314,165.353439 201.540894,167.067230 200.848541,168.491776   C198.135025,174.074905 193.458054,177.549728 188.007629,180.270844   C166.866211,190.825699 145.779251,201.489578 124.652710,212.074326   C123.143524,212.830460 121.478714,213.275986 118.989838,214.198029   C118.989838,211.046509 118.989861,208.920105 118.989830,206.793716   C118.989571,185.127457 118.985443,163.461212 118.993462,141.794952   C118.994568,138.795990 118.807625,135.769852 119.132988,132.802933   C120.392792,121.314796 116.424850,113.148651 106.121361,107.910477   C96.551865,103.045441 86.692535,98.754066 77.034012,94.059540   C68.134270,89.733818 59.327129,85.217247 50.487782,80.767693   C39.453255,75.213142 28.463341,69.566994 17.341623,64.193314   C16.249941,63.665848 14.371954,64.765770 12.195896,65.616333   C12.122940,97.723381 12.044127,129.830429 12.018910,161.937515   C12.018404,162.581451 12.643744,163.225876 13.021040,164.672104   C14.306363,173.163605 19.956135,178.472046 26.982573,182.036438   C49.077827,193.245010 71.369881,204.066345 93.619057,214.969620   C95.688507,215.983734 97.994194,216.515762 100.190193,217.271637   C100.437943,215.171204 101.360725,212.836197 100.736183,211.038864   C100.156837,209.371613 98.127411,207.873474 96.385620,207.002625   C88.676071,203.148041 80.804398,199.619446 73.057831,195.836792   C59.932465,189.427704 46.865067,182.900024 33.757607,176.454102   C27.084805,173.172577 21.598339,168.955444 20.951422,159.889755   C20.929169,131.603882 20.906918,103.318016 21.335770,75.373466   C26.892483,78.119598 32.463776,80.836693 38.003330,83.617012   C59.440876,94.376595 81.005081,104.898392 102.191048,116.133095   C106.757401,118.554588 111.682159,122.420380 111.018829,130.083527   C111.012718,145.742844 111.004333,161.402176 111.001144,177.061493   C110.998169,191.721283 110.974373,206.381226 111.059258,221.040527   C111.064995,222.031021 111.908127,223.016663 112.406166,224.008484  z"/>
<path fill="#000000" opacity="1.000000" stroke="none" d=" M209.039886,166.850296   C207.655746,170.418671 206.790085,174.313492 204.788239,177.492935   C199.240540,186.304092 189.196030,189.077148 180.817581,193.871719   C171.690369,199.094803 161.696823,202.779846 152.243591,207.463654   C140.858765,213.104523 129.687790,219.177094 118.300995,224.813828   C116.952446,225.481384 114.828461,224.582474 112.875214,223.952042   C112.493385,223.008423 112.300262,222.522461 112.022736,221.657074   C111.994240,220.506348 112.050140,219.735062 112.282578,218.807800   C112.340866,218.113113 112.222618,217.574387 112.020599,216.656311   C111.991737,215.506149 112.046638,214.735352 112.335846,213.627075   C112.714867,212.313934 112.985016,211.338379 112.985947,210.362564   C113.010223,185.010590 113.021194,159.658585 112.968864,134.306702   C112.965927,132.882233 112.401955,131.458893 111.989182,129.820648   C111.736610,129.250687 111.476562,129.105637 111.099091,129.171097   C111.682159,122.420380 106.757401,118.554588 102.191048,116.133095   C81.005081,104.898392 59.440876,94.376595 38.003330,83.617012   C32.463776,80.836693 26.892483,78.119598 20.874598,75.289948   C20.234814,75.487793 20.056200,75.769165 19.720589,76.214836   C19.675947,76.905472 19.788305,77.431808 19.972061,78.424713   C19.993380,103.943321 19.943304,128.995361 19.695145,154.285492   C19.624475,155.664627 19.751888,156.805664 19.954521,158.258667   C20.310989,159.313187 20.592239,160.055756 20.873487,160.798309   C21.598339,168.955444 27.084805,173.172577 33.757607,176.454102   C46.865067,182.900024 59.932465,189.427704 73.057831,195.836792   C80.804398,199.619446 88.676071,203.148041 96.385620,207.002625   C98.127411,207.873474 100.156837,209.371613 100.736183,211.038864   C101.360725,212.836197 100.437943,215.171204 100.190193,217.271637   C97.994194,216.515762 95.688507,215.983734 93.619057,214.969620   C71.369881,204.066345 49.077827,193.245010 26.982573,182.036438   C19.956135,178.472046 14.306363,173.163605 13.002106,163.810928   C12.941760,130.336609 12.900350,97.723473 12.858938,65.110321   C14.371954,64.765770 16.249941,63.665848 17.341623,64.193314   C28.463341,69.566994 39.453255,75.213142 50.487782,80.767693   C59.327129,85.217247 68.134270,89.733818 77.034012,94.059540   C86.692535,98.754066 96.551865,103.045441 106.121361,107.910477   C116.424850,113.148651 120.392792,121.314796 119.132988,132.802933   C118.807625,135.769852 118.994568,138.795990 118.993462,141.794952   C118.985443,163.461212 118.989571,185.127457 118.989830,206.793716   C118.989861,208.920105 118.989838,211.046509 118.989838,214.198029   C121.478714,213.275986 123.143524,212.830460 124.652710,212.074326   C145.779251,201.489578 166.866211,190.825699 188.007629,180.270844   C193.458054,177.549728 198.135025,174.074905 200.848541,168.491776   C201.540894,167.067230 201.956314,165.353439 201.959488,163.771454   C202.023132,132.105515 202.013916,100.439415 201.987640,68.773376   C201.986465,67.357956 201.685715,65.942787 201.371277,63.182312   C192.903351,67.399139 185.280228,71.266151 177.595520,75.006706   C163.435043,81.899345 149.296326,88.841827 135.025589,95.500031   C129.997681,97.845863 124.732948,100.349510 119.348686,101.062943   C114.754547,101.671684 109.451744,100.717789 105.131729,98.880981   C93.409042,93.896683 81.961418,88.237305 70.557434,82.539932   C60.185268,77.358055 50.071129,71.661743 39.735180,66.404655   C31.719280,62.327583 23.536737,58.578148 14.055993,54.023872   C15.770543,52.002457 16.914215,49.576656 18.806866,48.595211   C32.464294,41.513039 46.293056,34.762291 60.027561,27.827368   C69.544792,23.021862 79.175713,18.401276 88.428673,13.124380   C97.070633,8.195931 106.220917,5.880713 115.888466,7.165063   C119.854294,7.691930 123.487740,10.723245 127.271561,12.616952   C144.440994,21.209810 161.635376,29.753407 178.762589,38.429634   C183.358902,40.758018 187.750214,43.491108 192.858337,46.392056   C188.747711,50.336559 186.229843,51.813969 181.337738,49.094734   C169.503265,42.516659 157.076111,37.011150 144.947540,30.953777   C136.578049,26.773798 128.149857,22.670719 120.038696,18.025532   C112.017441,13.431841 104.548592,14.885490 96.965286,18.728243   C85.201172,24.689562 73.409264,30.596363 61.666542,36.599442   C54.062862,40.486580 46.540279,44.532124 38.949764,48.445408   C36.792431,49.557613 34.524292,50.454887 30.981899,52.045841   C38.109768,55.729156 43.767639,58.722633 49.486187,61.595318   C69.756310,71.777908 90.111351,81.794441 110.282951,92.168007   C115.053581,94.621368 119.020233,94.360847 123.170555,91.409012   C123.835762,90.935890 124.624977,90.632339 125.368835,90.275352   C131.042374,87.552567 136.728256,84.855377 142.392502,82.113419   C154.169266,76.412483 165.979919,70.778915 177.689545,64.942886   C185.485397,61.057457 193.023514,56.639149 200.915955,52.973915   C202.980011,52.015366 205.935989,52.977348 208.782440,53.531952   C209.068314,91.621170 209.054108,129.235733 209.039886,166.850296  z"/>
<path fill="#CFCFCF" opacity="1.000000" stroke="none" d=" M209.451263,166.712814   C209.054108,129.235733 209.068314,91.621170 209.114548,53.544090   C209.431030,53.760616 209.964447,54.439690 209.964340,55.118683   C209.958740,92.270905 209.908417,129.423111 209.451263,166.712814  z"/>
<path fill="#7B7B7B" opacity="1.000000" stroke="none" d=" M12.527418,65.363327   C12.900350,97.723473 12.941760,130.336609 12.980137,163.409912   C12.643744,163.225876 12.018404,162.581451 12.018910,161.937515   C12.044127,129.830429 12.122940,97.723381 12.527418,65.363327  z"/>
<path fill="#B7B7B7" opacity="1.000000" stroke="none" d=" M112.101532,213.964539   C112.046638,214.735352 111.991737,215.506149 111.975037,216.976746   C112.044167,218.105606 112.075111,218.534683 112.106049,218.963776   C112.050140,219.735062 111.994240,220.506348 111.979141,221.995972   C112.133896,223.144394 112.247849,223.574478 112.361801,224.004562   C111.908127,223.016663 111.064995,222.031021 111.059258,221.040527   C110.974373,206.381226 110.998169,191.721283 111.001144,177.061493   C111.004333,161.402176 111.012718,145.742844 111.058960,129.627319   C111.476562,129.105637 111.736610,129.250687 111.942459,130.285004   C112.037628,158.630692 112.069580,186.297607 112.101532,213.964539  z"/>
<path fill="#8D8A8D" opacity="1.000000" stroke="none" d=" M20.912455,160.344025   C20.592239,160.055756 20.310989,159.313187 20.001385,157.870483   C19.946426,156.129364 19.919827,155.088379 19.893227,154.047394   C19.943304,128.995361 19.993380,103.943321 20.013115,78.107239   C19.947712,76.898972 19.912649,76.474754 19.877586,76.050537   C20.056200,75.769165 20.234814,75.487793 20.649046,75.119286   C20.906918,103.318016 20.929169,131.603882 20.912455,160.344025  z"/>
<path fill="#010101" opacity="1.000000" stroke="none" d=" M112.383987,224.006531   C112.247849,223.574478 112.133896,223.144394 112.063538,222.375397   C112.300262,222.522461 112.493385,223.008423 112.566704,223.742554   C112.446899,223.990738 112.406166,224.008484 112.383987,224.006531  z"/>
<path fill="#010101" opacity="1.000000" stroke="none" d=" M112.335846,213.627075   C112.069580,186.297607 112.037628,158.630692 112.052391,130.499390   C112.401955,131.458893 112.965927,132.882233 112.968864,134.306702   C113.021194,159.658585 113.010223,185.010590 112.985947,210.362564   C112.985016,211.338379 112.714867,212.313934 112.335846,213.627075  z"/>
<path fill="#0D0B0C" opacity="1.000000" stroke="none" d=" M19.695145,154.285492   C19.919827,155.088379 19.946426,156.129364 19.926163,157.558533   C19.751888,156.805664 19.624475,155.664627 19.695145,154.285492  z"/>
<path fill="#0D0B0C" opacity="1.000000" stroke="none" d=" M19.720589,76.214836   C19.912649,76.474754 19.947712,76.898972 19.941719,77.640671   C19.788305,77.431808 19.675947,76.905472 19.720589,76.214836  z"/>
<path fill="#010101" opacity="1.000000" stroke="none" d=" M112.282585,218.807800   C112.075111,218.534683 112.044167,218.105606 112.058800,217.356094   C112.222618,217.574387 112.340866,218.113113 112.282585,218.807800  z"/>
</svg>